<?xml version="1.0" standalone="no"?>
<!DOCTYPE svg PUBLIC "-//W3C//DTD SVG 20010904//EN"
 "http://www.w3.org/TR/2001/REC-SVG-20010904/DTD/svg10.dtd">
<svg version="1.0" xmlns="http://www.w3.org/2000/svg"
 width="1197.000000pt" height="969.000000pt" viewBox="0 0 1197.000000 969.000000"
 preserveAspectRatio="xMidYMid meet">

<g transform="translate(0.000000,969.000000) scale(0.100000,-0.100000)"
fill="#000000" stroke="none">
<path d="M0 4845 l0 -4845 5985 0 5985 0 0 4845 0 4845 -5985 0 -5985 0 0
-4845z m3055 4666 c51 -24 89 -64 113 -121 11 -25 302 -989 648 -2142 l629
-2098 36 0 c35 0 35 1 57 68 11 37 300 990 641 2117 342 1128 630 2069 641
2092 12 26 36 53 61 70 l43 28 963 3 c664 2 977 -1 1004 -8 22 -6 58 -27 80
-47 71 -64 69 -40 69 -909 l0 -772 -49 -84 c-26 -45 -135 -234 -241 -418 -107
-184 -266 -461 -355 -615 -89 -154 -246 -426 -350 -605 -103 -179 -253 -439
-334 -578 l-146 -254 -3 1266 c-2 1250 -2 1266 -22 1266 -10 0 -23 -8 -28 -17
-5 -10 -93 -292 -195 -628 -102 -335 -368 -1208 -590 -1940 -223 -731 -516
-1695 -652 -2142 l-246 -812 -181 -313 c-690 -1195 -830 -1439 -901 -1563 -97
-170 -109 -184 -64 -80 19 44 177 412 351 817 174 405 316 740 316 745 0 4
-21 28 -46 53 -25 25 -59 70 -74 101 -16 31 -180 562 -365 1180 -185 618 -394
1311 -465 1539 -71 228 -167 541 -215 695 -48 154 -115 372 -150 485 -35 113
-163 527 -285 920 -122 393 -239 772 -261 843 -37 117 -42 127 -64 127 l-25 0
0 -2882 c0 -1952 -3 -2895 -10 -2920 -14 -51 -53 -94 -98 -110 -29 -10 -164
-13 -622 -13 l-585 0 -46 23 c-54 26 -94 78 -108 142 -7 30 -11 1229 -11 3676
0 3307 1 3635 16 3685 18 62 71 119 125 136 23 8 332 11 994 12 914 1 962 0
1000 -18z m5930 -849 c-190 -442 -345 -804 -345 -806 0 -2 163 -6 363 -9 388
-5 505 -16 730 -71 664 -160 1119 -628 1256 -1291 59 -289 56 -153 56 -2460 0
-2260 1 -2201 -51 -2461 -33 -168 -83 -316 -158 -469 -82 -166 -165 -284 -291
-410 -261 -261 -590 -415 -1040 -487 -138 -23 -154 -23 -1080 -23 -1004 0
-1027 1 -1270 51 -247 52 -479 148 -669 277 -112 76 -278 235 -358 342 -167
224 -278 507 -335 855 -14 91 -17 207 -20 858 l-4 753 24 42 c13 23 169 294
347 602 177 308 399 693 493 855 94 162 225 390 292 505 67 116 169 293 228
395 58 102 112 193 119 203 11 14 12 -318 10 -1845 -3 -1889 -1 -2048 34
-2181 64 -249 221 -368 522 -397 135 -13 994 -13 1125 0 349 34 503 173 552
500 22 142 22 3898 0 4040 -37 249 -130 379 -320 449 -133 50 -169 53 -699 58
-529 5 -698 -2 -822 -37 -38 -10 -70 -18 -71 -16 -1 1 169 299 379 661 517
896 851 1476 1118 1937 123 214 225 387 226 385 2 -2 -152 -364 -341 -805z"/>
</g>
</svg>
